<svg xmlns="http://www.w3.org/2000/svg" viewBox="0 0 128 128" width="128" height="128">
  <!-- 📺 Internet Historian Harold — The Narrator of Digital Disasters -->
  <defs>
    <radialGradient id="ih-skin" cx="50%" cy="42%" r="50%">
      <stop offset="0%" stop-color="#dfc4a8"/>
      <stop offset="85%" stop-color="#c4a888"/>
      <stop offset="100%" stop-color="#b09070"/>
    </radialGradient>
    <linearGradient id="screen-glow" x1="0" y1="0" x2="0" y2="1">
      <stop offset="0%" stop-color="#4488ff" stop-opacity="0.15"/>
      <stop offset="100%" stop-color="#4488ff" stop-opacity="0"/>
    </linearGradient>
  </defs>
  <!-- Monitor glow background -->
  <circle cx="64" cy="64" r="63" fill="#2d333b" stroke="#444c56" stroke-width="1"/>
  <!-- Screen glow on face -->
  <circle cx="64" cy="64" r="52" fill="url(#screen-glow)"/>
  <!-- Face -->
  <circle cx="64" cy="64" r="52" fill="url(#ih-skin)" stroke="#b09070" stroke-width="2"/>
  <!-- Hair (distinguished, narrator-worthy) -->
  <ellipse cx="64" cy="25" rx="48" ry="18" fill="#b8b8b8"/>
  <ellipse cx="64" cy="20" rx="44" ry="14" fill="#c8c8c8"/>
  <!-- Slightly side-swept (professorial) -->
  <path d="M 20 28 Q 30 15 50 18" fill="#c8c8c8" stroke="none"/>
  <!-- Subtle forehead wrinkles (earned through witnessing digital history) -->
  <path d="M 36 34 Q 50 31 64 34" stroke="#b09070" stroke-width="1" fill="none" opacity="0.5"/>
  <path d="M 64 34 Q 78 31 92 34" stroke="#b09070" stroke-width="1" fill="none" opacity="0.5"/>
  <!-- Eyes — knowing, seen-it-all expression -->
  <!-- Left eye (wide, expressive, storyteller's eyes) -->
  <ellipse cx="44" cy="54" rx="11" ry="7" fill="white" stroke="#7a6a5a" stroke-width="1.5"/>
  <circle cx="44" cy="54" r="4.5" fill="#3a6a8a"/>
  <circle cx="44" cy="54" r="2.5" fill="#1a2a3a"/>
  <circle cx="46" cy="52" r="1.2" fill="white" opacity="0.8"/>
  <!-- Right eye -->
  <ellipse cx="84" cy="54" rx="11" ry="7" fill="white" stroke="#7a6a5a" stroke-width="1.5"/>
  <circle cx="84" cy="54" r="4.5" fill="#3a6a8a"/>
  <circle cx="84" cy="54" r="2.5" fill="#1a2a3a"/>
  <circle cx="86" cy="52" r="1.2" fill="white" opacity="0.8"/>
  <!-- Eyebrows — one slightly raised (bemused narrator) -->
  <path d="M 30 46 Q 38 40 56 45" stroke="#888" stroke-width="2.5" fill="none" stroke-linecap="round"/>
  <path d="M 72 43 Q 90 38 98 44" stroke="#888" stroke-width="2.5" fill="none" stroke-linecap="round"/>
  <!-- Crow's feet (from squinting at vintage internet) -->
  <line x1="57" y1="52" x2="60" y2="50" stroke="#b09070" stroke-width="0.8" opacity="0.4"/>
  <line x1="57" y1="54" x2="60" y2="54" stroke="#b09070" stroke-width="0.8" opacity="0.4"/>
  <line x1="57" y1="56" x2="60" y2="58" stroke="#b09070" stroke-width="0.8" opacity="0.4"/>
  <line x1="71" y1="52" x2="68" y2="50" stroke="#b09070" stroke-width="0.8" opacity="0.4"/>
  <line x1="71" y1="54" x2="68" y2="54" stroke="#b09070" stroke-width="0.8" opacity="0.4"/>
  <line x1="71" y1="56" x2="68" y2="58" stroke="#b09070" stroke-width="0.8" opacity="0.4"/>
  <!-- Nose -->
  <path d="M 64 52 L 60 69 Q 64 73 68 69 Z" fill="#c4a888" stroke="#b09070" stroke-width="0.8"/>
  <!-- THE SMIRK — knowing, wry, "let me tell you a story" -->
  <path d="M 44 80 Q 56 90 68 86 Q 80 82 86 78" stroke="#6a3a2c" stroke-width="2.5" fill="none" stroke-linecap="round"/>
  <!-- Slight dimple (from years of dry wit) -->
  <circle cx="42" cy="82" r="1.5" fill="#c4a088" opacity="0.4"/>
  <!-- Reading glasses (lower on nose, professor style) -->
  <rect x="31" y="52" width="26" height="14" rx="3" fill="none" stroke="#666" stroke-width="2"/>
  <rect x="71" y="52" width="26" height="14" rx="3" fill="none" stroke="#666" stroke-width="2"/>
  <line x1="57" y1="58" x2="71" y2="58" stroke="#666" stroke-width="1.5"/>
  <!-- Glasses arms -->
  <line x1="31" y1="55" x2="22" y2="52" stroke="#666" stroke-width="1.5"/>
  <line x1="97" y1="55" x2="106" y2="52" stroke="#666" stroke-width="1.5"/>
  <!-- 📺 Tiny TV/monitor icon in corner -->
  <rect x="96" y="12" rx="2" width="20" height="15" fill="#444" stroke="#888" stroke-width="1.5"/>
  <rect x="98" y="14" rx="1" width="16" height="10" fill="#4488ff" opacity="0.5"/>
  <line x1="106" y1="27" x2="106" y2="30" stroke="#888" stroke-width="1.5"/>
  <line x1="100" y1="30" x2="112" y2="30" stroke="#888" stroke-width="1.5"/>
</svg>
